<mxfile host="app.diagrams.net" modified="2023-05-31T06:28:56.339Z" agent="Mozilla/5.0 (Macintosh; Intel Mac OS X 10_15_7) AppleWebKit/537.36 (KHTML, like Gecko) Chrome/113.0.0.0 Safari/537.36" version="21.3.6" etag="U5k_1oMsUJPmJwJXIC9i" type="github">
  <diagram name="第 1 页" id="acxYa5TBwGzPpD7oiIN3">
    <mxGraphModel>
      <root>
        <mxCell id="0" />
        <mxCell id="1" parent="0" />
      </root>
    </mxGraphModel>
  </diagram>
</mxfile>
